# xmcd CD database file
#
# Track frame offsets:
#	150
#	13306
#	34405
#	38125
#	63013
#	77881
#	94630
#	113763
#	138392
#	150548
#
# Disc length: 2491 seconds
#
# Revision: 0
# Processed by: cddbd v1.4PL0 Copyright (c) Steve Scherf et al.
# Submitted via: CDex 1.50
#
DISCID=7909b90a
DTITLE=Kenny Drew and Niels-Henning Orsted Pedersen - Duo
DYEAR=1973
DGENRE=Jazz
TTITLE0=In The Still Of The Woods
TTITLE1=Come Summer
TTITLE2=Lullaby
TTITLE3=Kristine
TTITLE4=Serenity
TTITLE5=Once A Saturday Night
TTITLE6=Do You Know What It Means To Miss New Orleans
TTITLE7=Wave
TTITLE8=Duo Trip
TTITLE9=Hush-A-Bye
EXTD=YEAR: 1973
EXTT0=
EXTT1=
EXTT2=
EXTT3=
EXTT4=
EXTT5=
EXTT6=
EXTT7=
EXTT8=
EXTT9=
PLAYORDER=
